<svg width="102" height="31" viewBox="0 0 102 31" fill="none" xmlns="http://www.w3.org/2000/svg">
<path d="M11.6446 -1.90735e-06C13.0526 -1.90735e-06 14.002 0.266665 14.4926 0.799999C14.9833 1.33333 15.2286 2.38933 15.2286 3.968V6.304C15.2286 7.52 14.9726 8.40533 14.4606 8.96C14.2046 9.23733 13.8633 9.504 13.4366 9.76C13.0313 10.016 12.53 10.3253 11.9326 10.688L4.86063 15.104V21.824H6.94063V24H0.220625V21.824H2.23663V2.208H0.220625V-1.90735e-06H11.6446ZM12.8926 2.208H4.86063V12.544L12.8926 7.584V2.208ZM19.6466 24C18.5586 24 17.7906 23.7547 17.3426 23.264C16.8946 22.752 16.6706 22.048 16.6706 21.152V10.848C16.6706 9.99467 16.8626 9.312 17.2466 8.8C17.652 8.26667 18.452 8 19.6466 8H25.5666C26.74 8 27.5293 8.26667 27.9346 8.8C28.34 9.312 28.5426 9.99467 28.5426 10.848V21.152C28.5426 22.048 28.3186 22.752 27.8706 23.264C27.4226 23.7547 26.6546 24 25.5666 24H19.6466ZM19.2626 21.824H25.9506V10.176H19.2626V21.824ZM42.2761 21.184C42.2761 23.0613 41.3588 24 39.5241 24H31.7801V19.168H33.9561V21.824H39.7161V19.168L34.4681 15.872C33.9348 15.5307 33.4761 15.2533 33.0921 15.04C32.7081 14.8267 32.3881 14.6133 32.1321 14.4C31.6628 13.9733 31.4281 13.3973 31.4281 12.672V10.848C31.4281 9.952 31.5775 9.33333 31.8761 8.992C32.4521 8.33067 33.3055 8 34.4361 8H41.8921V12.8H39.7161V10.176H33.9561V12.864L39.3961 16.256C39.8441 16.5333 40.2388 16.7787 40.5801 16.992C40.9428 17.184 41.2415 17.3867 41.4761 17.6C42.0095 18.048 42.2761 18.5813 42.2761 19.2V21.184ZM50.0346 2.176V8H52.6266V10.304H50.0346V21.824H53.0746V24H50.3866C49.4266 24 48.712 23.7547 48.2426 23.264C47.7733 22.752 47.5386 21.888 47.5386 20.672V10.304H45.1706V8H47.5386V2.176H50.0346ZM60.2869 21.824H62.3669V24H55.6469V21.824H57.6629V10.176H55.6469V8H60.2869V21.824ZM58.9749 2.112C59.4229 2.112 59.7962 2.28267 60.0949 2.624C60.4149 2.944 60.5749 3.33867 60.5749 3.808C60.5749 4.256 60.4149 4.64 60.0949 4.96C59.7962 5.25867 59.4122 5.408 58.9429 5.408C58.4949 5.408 58.1109 5.25867 57.7909 4.96C57.4922 4.64 57.3429 4.256 57.3429 3.808C57.3429 3.33867 57.5029 2.944 57.8229 2.624C58.1429 2.28267 58.5269 2.112 58.9749 2.112ZM69.9766 10.304V21.824H72.5686V24H64.9206V21.824H67.4806V10.304H64.9206V8H67.4806V3.328C67.4806 2.112 67.7153 1.25867 68.1846 0.768C68.654 0.255999 69.3686 -1.90735e-06 70.3286 -1.90735e-06H72.9846V2.176H69.9766V8H72.5686V10.304H69.9766ZM89.1456 8V28.256C89.1456 29.152 88.9216 29.8347 88.4736 30.304C88.047 30.7733 87.2896 31.008 86.2016 31.008H78.8096V26.656H80.9856V28.8H86.5216V20.384L80.8896 23.872C80.399 24.1707 79.9083 24.32 79.4176 24.32C78.927 24.32 78.5003 24.16 78.1376 23.84C77.775 23.4987 77.5936 22.9653 77.5936 22.24V10.176H75.5456V8H80.1856V21.792L86.5536 17.792V10.176H84.9856V8H89.1456Z" fill="black"/>
<path d="M97.8384 17.664C98.7344 17.664 99.481 18.0053 100.078 18.688C100.718 19.3707 101.038 20.16 101.038 21.056C101.038 21.952 100.718 22.72 100.078 23.36C99.481 23.9573 98.7344 24.256 97.8384 24.256C96.9424 24.256 96.1744 23.9573 95.5344 23.36C94.8944 22.72 94.5744 21.952 94.5744 21.056C94.5744 20.16 94.8944 19.3707 95.5344 18.688C96.217 18.0053 96.985 17.664 97.8384 17.664Z" fill="#1576D8"/>
</svg>
